<svg id="Component_8_1" data-name="Component 8 – 1" xmlns="http://www.w3.org/2000/svg" xmlns:xlink="http://www.w3.org/1999/xlink" width="50.026" height="42" viewBox="0 0 50.026 42">
  <defs>
    <clipPath id="clip-path">
      <rect id="Rectangle_3" data-name="Rectangle 3" width="37.026" height="36" fill="none" stroke="#b1b1b1" stroke-width="1"/>
    </clipPath>
  </defs>
  <g id="Group_4" data-name="Group 4" transform="translate(0 3)" opacity="0.75">
    <g id="Group_3" data-name="Group 3" clip-path="url(#clip-path)">
      <path id="Path_6" data-name="Path 6" d="M89.544,152.124c0-.675.006-4.774,0-6.148a19.191,19.191,0,0,0-.233-3.116,6.5,6.5,0,0,0-1.127-2.627.9.9,0,0,1-.06-.1c-.006-.012,0-.029,0-.075.359-.114.725-.243,1.1-.345a.929.929,0,0,0,.742-1.053,1.058,1.058,0,0,0-.989-1.022c-.721-.007-1.443-.008-2.165,0a.369.369,0,0,1-.365-.2q-.846-1.386-1.709-2.762a3.8,3.8,0,0,0-2.283-1.651,3.76,3.76,0,0,0-1-.144q-2.48-.008-4.96-.014t-4.96.014a3.759,3.759,0,0,0-1,.144,3.8,3.8,0,0,0-2.283,1.651q-.862,1.376-1.709,2.762a.369.369,0,0,1-.365.2c-.721-.01-1.443-.009-2.165,0a1.058,1.058,0,0,0-.989,1.022.929.929,0,0,0,.742,1.053c.373.1.739.231,1.1.345,0,.046.005.063,0,.075a.884.884,0,0,1-.06.1,6.5,6.5,0,0,0-1.127,2.627,19.2,19.2,0,0,0-.233,3.116c-.009,1.374,0,5.473,0,6.148a.688.688,0,0,0,.728.73c.928-.019,1.857,0,2.786-.007a.647.647,0,0,0,.687-.692c0-.43,0-.86,0-1.29,0-.321,0-.321.323-.321H85.019c.323,0,.323,0,.323.321,0,.43,0,.86,0,1.29a.647.647,0,0,0,.687.692c.929.005,1.858-.011,2.786.007a.688.688,0,0,0,.728-.73M66.877,139.28q1.047-1.719,2.122-3.42a5.483,5.483,0,0,1,.741-1.005,2.556,2.556,0,0,1,1.826-.729q2.464-.006,4.928-.009t4.928.009a2.556,2.556,0,0,1,1.826.729,5.487,5.487,0,0,1,.741,1.005q1.076,1.7,2.122,3.42a.716.716,0,0,1,.078.434c-.034.26-.244.37-.624.37H67.423c-.379,0-.59-.11-.624-.37a.716.716,0,0,1,.078-.434M70,144.8a1.03,1.03,0,0,1-1,.784c-.422.01-.844,0-1.265,0v.012c-.376,0-.751,0-1.127,0a1.549,1.549,0,0,1-1.459-1.009,1.52,1.52,0,0,1,.711-1.785,1.564,1.564,0,0,1,1.353-.037c.715.268,1.436.517,2.149.79A1.027,1.027,0,0,1,70,144.8m10.162,3.568c0,.458-.143.6-.607.6h-6.13c-.464,0-.606-.139-.607-.6,0-.169,0-.338,0-.507,0-.365.17-.533.533-.533q1.462,0,2.924,0h.429q1.462,0,2.924,0c.363,0,.528.168.533.533,0,.169,0,.338,0,.507m7.673-3.779a1.549,1.549,0,0,1-1.459,1.009c-.376,0-.751,0-1.127,0v-.012c-.422,0-.844.008-1.265,0a1.048,1.048,0,0,1-.361-2.028c.713-.272,1.434-.522,2.149-.79a1.564,1.564,0,0,1,1.353.037,1.52,1.52,0,0,1,.711,1.785" transform="translate(-57.981 -122.243)" fill="#161615" stroke="#b1b1b1" stroke-width="1"/>
      <path id="Path_7" data-name="Path 7" d="M35.959,8.026C30.213,5.327,24.617,2.694,19.328.2a1.858,1.858,0,0,0-1.674,0C11.871,2.93,6.04,5.676,1.029,8.037A1.678,1.678,0,0,0,0,9.667q0,7.595,0,15.19,0,4.7,0,9.39A1.686,1.686,0,0,0,1.77,36q2.019,0,4.038,0c.1,0,.2-.007.3-.014l.12-.008a.44.44,0,0,0,.416-.439v-1.36a.44.44,0,0,0-.44-.44H2.246V30.455c0-6.7,0-13.635-.008-20.452a.362.362,0,0,1,0-.052.633.633,0,0,1,.083-.045c5.86-2.756,11.11-5.232,16.049-7.567a.185.185,0,0,1,.213-.006C24.548,5.146,29.813,7.62,34.68,9.9a.3.3,0,0,1,.092.056h0a.393.393,0,0,1,.015.149c-.007,4.524-.007,9.124-.007,13.573V33.754H30.825a.44.44,0,0,0-.44.44v1.365a.44.44,0,0,0,.44.44h4.342a1.678,1.678,0,0,0,1.855-1.861V28.758q0-9.52,0-19.039a1.74,1.74,0,0,0-1.066-1.692" transform="translate(0 0)" fill="#161615" stroke="#b1b1b1" stroke-width="1"/>
    </g>
  </g>
  <g id="Ellipse_1" data-name="Ellipse 1" transform="translate(31.026 2)" fill="#ec710c" stroke="#b1b1b1" stroke-width="1">
    <circle cx="9.5" cy="9.5" r="9.5" stroke="none"/>
    <circle cx="9.5" cy="9.5" r="9" fill="none"/>
  </g>
  <text id="_2_" data-name="2
" transform="translate(36.026 17)" fill="#fff" font-size="16" font-family="SegoeUI, Segoe UI"><tspan x="0" y="0">2</tspan><tspan x="0" y="21"></tspan></text>
</svg>
